<?xml version="1.0" encoding="UTF-8" standalone="no"?>
<!-- Created with Inkscape (http://www.inkscape.org/) -->

<svg
   xmlns:dc="http://purl.org/dc/elements/1.1/"
   xmlns:cc="http://creativecommons.org/ns#"
   xmlns:rdf="http://www.w3.org/1999/02/22-rdf-syntax-ns#"
   xmlns:svg="http://www.w3.org/2000/svg"
   xmlns="http://www.w3.org/2000/svg"
   xmlns:xlink="http://www.w3.org/1999/xlink"
   xmlns:sodipodi="http://sodipodi.sourceforge.net/DTD/sodipodi-0.dtd"
   xmlns:inkscape="http://www.inkscape.org/namespaces/inkscape"
   width="67.537842"
   height="67.537842"
   id="svg2"
   version="1.1"
   inkscape:version="0.48.4 r9939"
   sodipodi:docname="example_sticker_4.pdf">
  <defs
     id="defs4" />
  <sodipodi:namedview
     id="base"
     pagecolor="#ffffff"
     bordercolor="#666666"
     borderopacity="1.0"
     inkscape:pageopacity="0.0"
     inkscape:pageshadow="2"
     inkscape:zoom="10.24"
     inkscape:cx="41.780846"
     inkscape:cy="26.71312"
     inkscape:document-units="px"
     inkscape:current-layer="layer1"
     showgrid="true"
     fit-margin-top="0"
     fit-margin-left="0"
     fit-margin-right="0"
     fit-margin-bottom="0"
     inkscape:snap-bbox="true"
     inkscape:snap-bbox-midpoints="true"
     inkscape:snap-object-midpoints="true"
     inkscape:snap-center="false"
     inkscape:snap-grids="false"
     inkscape:snap-nodes="true"
     inkscape:snap-to-guides="false"
     inkscape:window-width="1916"
     inkscape:window-height="1033"
     inkscape:window-x="0"
     inkscape:window-y="24"
     inkscape:window-maximized="1">
    <inkscape:grid
       empspacing="5"
       visible="true"
       enabled="true"
       snapvisiblegridlinesonly="true"
       type="xygrid"
       id="grid3006" />
  </sodipodi:namedview>
  <metadata
     id="metadata7">
    <rdf:RDF>
      <cc:Work
         rdf:about="">
        <dc:format>image/svg+xml</dc:format>
        <dc:type
           rdf:resource="http://purl.org/dc/dcmitype/StillImage" />
        <dc:title></dc:title>
      </cc:Work>
    </rdf:RDF>
  </metadata>
  <g
     inkscape:label="Layer 1"
     inkscape:groupmode="layer"
     id="layer1"
     transform="translate(-4.3338699e-7,-984.79163)">
    <path
       style="fill:none;stroke:#000000;stroke-width:0.08715876;stroke-linecap:round;stroke-linejoin:round;stroke-miterlimit:4;stroke-opacity:1;stroke-dashoffset:0.3465"
       d="m 0.06250078,1018.5605 c 0,18.6156 15.09087922,33.7065 33.70642122,33.7065 18.615541,0 33.706419,-15.0909 33.706419,-33.7065 0,-18.6155 -15.090878,-33.70637 -33.706419,-33.70637 -18.615542,0 -33.70642122,15.09087 -33.70642122,33.70637 z"
       id="path2985"
       inkscape:connector-curvature="0" />
    <rect
       style="fill:#002966;fill-opacity:1;stroke:none"
       id="rect3966"
       width="59.018002"
       height="0.667"
       x="4.1964293"
       y="1022.6656" />
    <g
       transform="matrix(0.15661609,0,0,-0.14965172,24.995949,1038.3721)"
       inkscape:label="ink_ext_XXXXXX"
       id="g4020">
      <g
         transform="scale(0.1,0.1)"
         id="g4022">
        <path
           id="path4024"
           style="fill:#fccb06;fill-opacity:1;fill-rule:nonzero;stroke:none"
           d="m 540.02,203.25642 -221.18,302.293 0,-219.89 87.957,0 0,-217.140916 -406.797,0 0,217.140916 82.4609,0 0,338.074 -82.4609,0 0,217.129 319.539,0 220.481,-304.5 220.468,304.5 319.512,0 0,-217.129 -82.461,0 0,-338.074 82.461,0 0,-217.140916 -406.758,0 0,217.140916 87.93,0 0,219.89 -221.152,-302.293 z m 584.59,-89.52313 6.09,0 c 3.3,0 7.48,-0.6132 7.48,-4.53119 0,-4.4219 -3.04,-5.0391 -7.13,-5.0391 l -6.44,0 0,9.57029 z m -7.23,-30.781186 7.23,0 0,15.5664 4.53,0 8.85,-15.5664 7.58,0 -9.73,15.918 c 5.37,0.4297 9.53,3.038996 9.53,9.738196 0,7.90628 -5.12,10.76958 -14.24,10.76958 l -13.75,0 0,-36.425776 z m -11.54,18.175796 c 0,14.78509 10.86,25.46477 24.51,25.46477 13.48,0 24.51,-10.67968 24.51,-25.46477 0,-14.867196 -11.03,-25.644596 -24.51,-25.644596 -13.65,0 -24.51,10.7774 -24.51,25.644596 z m -8.87,0 c 0,-19.828096 15.73,-32.609396 33.38,-32.609396 17.64,0 33.38,12.7813 33.38,32.609396 0,19.74608 -15.74,32.42186 -33.38,32.42186 -17.65,0 -33.38,-12.67578 -33.38,-32.42186"
           inkscape:connector-curvature="0" />
      </g>
    </g>
    <text
       xml:space="preserve"
       style="font-size:40px;font-style:normal;font-weight:normal;text-align:center;line-height:125%;letter-spacing:0px;word-spacing:0px;text-anchor:middle;fill:#000000;fill-opacity:1;stroke:none;font-family:Sans"
       x="114.58366"
       y="1036.3661"
       id="text3910"
       sodipodi:linespacing="125%"><tspan
         sodipodi:role="line"
         id="tspan3912"
         x="114.58366"
         y="1036.3661"
         style="font-size:8px">Alfred</tspan><tspan
         sodipodi:role="line"
         x="114.58366"
         y="1046.3661"
         id="tspan3914"
         style="font-size:8px">Pennysworth</tspan></text>
    <path
       sodipodi:type="arc"
       style="fill:none;stroke:none;stroke-width:0.49500000000000000;stroke-linecap:round;stroke-linejoin:round;stroke-miterlimit:4;stroke-opacity:1;stroke-dasharray:none;stroke-dashoffset:0.34649999999999997"
       id="path4139"
       sodipodi:cx="-105.07812"
       sodipodi:cy="31.112061"
       sodipodi:rx="18.359375"
       sodipodi:ry="15.332031"
       d="m -86.718742,31.112061 a 18.359375,15.332031 0 1 1 -36.718748,0 18.359375,15.332031 0 1 1 36.718748,0 z"
       transform="matrix(1.3284875,0,0,1.5908003,173.36389,969.06749)" />
    <text
       xml:space="preserve"
       style="font-size:40px;font-style:normal;font-weight:normal;line-height:125%;letter-spacing:0px;word-spacing:0px;fill:#002966;fill-opacity:1;stroke:none;font-family:Sans"
       id="text4141"
       sodipodi:linespacing="125%"
       inkscape:transform-center-x="1.2419638"
       inkscape:transform-center-y="-19.840899"
       transform="matrix(0.03487086,0.99939183,-0.99939183,0.03487086,1050.5325,949.2941)"><textPath
         xlink:href="#path4139"
         startOffset="50%"
         id="textPath4145"><tspan
   style="font-size:8px;font-style:normal;font-variant:normal;font-weight:500;font-stretch:normal;text-align:center;text-anchor:middle;font-family:gargi;-inkscape-font-specification:gargi Medium;fill:#002966;fill-opacity:1"
   id="tspan4143">Your Name Is:</tspan></textPath></text>
    <path
       style="fill:none;stroke:none;stroke-width:1.66531062000000007;stroke-opacity:1"
       d="m 64.436265,1018.5606 c 0,-16.9371 -13.730238,-30.66739 -30.667345,-30.66739 -16.937105,0 -30.6673438,13.73029 -30.6673438,30.66739 0,16.9371 13.7302388,30.6673 30.6673438,30.6673 16.937107,0 30.667345,-13.7302 30.667345,-30.6673 z"
       id="path4148"
       inkscape:connector-curvature="0" />
    <text
       xml:space="preserve"
       style="font-size:40px;font-style:normal;font-weight:normal;line-height:125%;letter-spacing:0px;word-spacing:0px;fill:#fccb06;fill-opacity:1;stroke:none;font-family:Sans"
       id="text4150"
       sodipodi:linespacing="125%"
       inkscape:transform-center-x="-0.28946312"
       transform="matrix(-0.01423276,-0.99989871,0.99989871,-0.01423276,-984.06887,1066.682)"
       inkscape:transform-center-y="23.531107"><textPath
         xlink:href="#path4148"
         startOffset="50%"
         id="textPath4155"><tspan
   style="font-size:10px;font-style:normal;font-variant:normal;font-weight:normal;font-stretch:normal;text-align:center;text-anchor:middle;fill:#fccb06;fill-opacity:1;font-family:Droid Sans;-inkscape-font-specification:Droid Sans"
   id="tspan4152">wearabouts</tspan></textPath></text>
    <text
       xml:space="preserve"
       style="font-size:40px;font-style:normal;font-weight:normal;text-align:center;line-height:125%;letter-spacing:0px;word-spacing:0px;text-anchor:middle;fill:#000000;fill-opacity:1;stroke:none;font-family:Sans"
       x="33.154289"
       y="1010.4741"
       id="text3910-9"
       sodipodi:linespacing="125%"><tspan
         sodipodi:role="line"
         x="33.154289"
         y="1010.4741"
         id="tspan3914-3"
         style="font-size:8px">Martian</tspan><tspan
         sodipodi:role="line"
         x="33.154289"
         y="1020.4741"
         style="font-size:8px"
         id="tspan4185">Manhunter</tspan></text>
  </g>
</svg>
