<?xml version="1.0" encoding="UTF-8" standalone="no"?>
<!-- Created with Inkscape (http://www.inkscape.org/) -->

<svg
   xmlns:dc="http://purl.org/dc/elements/1.1/"
   xmlns:cc="http://creativecommons.org/ns#"
   xmlns:rdf="http://www.w3.org/1999/02/22-rdf-syntax-ns#"
   xmlns:svg="http://www.w3.org/2000/svg"
   xmlns="http://www.w3.org/2000/svg"
   xmlns:sodipodi="http://sodipodi.sourceforge.net/DTD/sodipodi-0.dtd"
   xmlns:inkscape="http://www.inkscape.org/namespaces/inkscape"
   width="610"
   height="40"
   id="svg2"
   version="1.1"
   inkscape:version="0.48.4 r9939"
   sodipodi:docname="whereaboutsLogo.svg">
  <defs
     id="defs4" />
  <sodipodi:namedview
     id="base"
     pagecolor="#ffffff"
     bordercolor="#666666"
     borderopacity="1.0"
     inkscape:pageopacity="1"
     inkscape:pageshadow="2"
     inkscape:zoom="1.4"
     inkscape:cx="327.10464"
     inkscape:cy="33.278203"
     inkscape:document-units="px"
     inkscape:current-layer="layer1"
     showgrid="false"
     inkscape:snap-bbox="true"
     inkscape:snap-bbox-edge-midpoints="false"
     inkscape:bbox-nodes="true"
     inkscape:window-width="1090"
     inkscape:window-height="383"
     inkscape:window-x="69"
     inkscape:window-y="41"
     inkscape:window-maximized="0" />
  <metadata
     id="metadata7">
    <rdf:RDF>
      <cc:Work
         rdf:about="">
        <dc:format>image/svg+xml</dc:format>
        <dc:type
           rdf:resource="http://purl.org/dc/dcmitype/StillImage" />
        <dc:title></dc:title>
      </cc:Work>
    </rdf:RDF>
  </metadata>
  <g
     inkscape:label="Layer 1"
     inkscape:groupmode="layer"
     id="layer1"
     transform="translate(0,-1012.3622)">
    <g
       transform="matrix(0.43299646,0,0,-0.43299646,9.266878,1048.2472)"
       inkscape:label="ink_ext_XXXXXX"
       id="g3103">
      <g
         transform="scale(0.1,0.1)"
         id="g3105">
        <path
           id="path3107"
           style="fill:#fccb06;fill-opacity:1;fill-rule:nonzero;stroke:none"
           d="m 540.02,134.738 -221.18,302.293 0,-219.89 87.957,0 L 406.797,0 0,0 l 0,217.141 82.4609,0 0,338.074 -82.4609,0 0,217.129 319.539,0 220.481,-304.5 220.468,304.5 319.512,0 0,-217.129 -82.461,0 0,-338.074 82.461,0 L 1080,0 673.242,0 l 0,217.141 87.93,0 0,219.89 L 540.02,134.738 z m 584.59,-89.5232 6.09,0 c 3.3,0 7.48,-0.6132 7.48,-4.5312 0,-4.4219 -3.04,-5.0391 -7.13,-5.0391 l -6.44,0 0,9.5703 z m -7.23,-30.7812 7.23,0 0,15.5664 4.53,0 8.85,-15.5664 7.58,0 -9.73,15.918 c 5.37,0.4297 9.53,3.039 9.53,9.7382 0,7.9063 -5.12,10.7696 -14.24,10.7696 l -13.75,0 0,-36.4258 z m -11.54,18.1758 c 0,14.7851 10.86,25.4648 24.51,25.4648 13.48,0 24.51,-10.6797 24.51,-25.4648 0,-14.8672 -11.03,-25.64456 -24.51,-25.64456 -13.65,0 -24.51,10.77736 -24.51,25.64456 z m -8.87,0 C 1096.97,12.7813 1112.7,0 1130.35,0 c 17.64,0 33.38,12.7813 33.38,32.6094 0,19.7461 -15.74,32.4219 -33.38,32.4219 -17.65,0 -33.38,-12.6758 -33.38,-32.4219"
           inkscape:connector-curvature="0" />
      </g>
    </g>
    <text
       xml:space="preserve"
       style="font-size:40px;font-style:normal;font-weight:normal;line-height:125%;letter-spacing:0px;word-spacing:0px;fill:#0e2b58;fill-opacity:1;stroke:none;font-family:Sans"
       x="75.304413"
       y="1045.0261"
       id="text3112"
       sodipodi:linespacing="125%"><tspan
         sodipodi:role="line"
         id="tspan3114"
         x="75.304413"
         y="1045.0261"
         style="font-size:36px;font-style:normal;font-variant:normal;font-weight:normal;font-stretch:normal;fill:#0e2b58;fill-opacity:1;font-family:Droid Sans;-inkscape-font-specification:Droid Sans">wearabouts</tspan></text>
    <text
       xml:space="preserve"
       style="font-size:40px;font-style:normal;font-weight:normal;line-height:89.99999762%;letter-spacing:0px;word-spacing:0px;fill:#0e2b58;fill-opacity:1;stroke:none;font-family:Sans"
       x="432.8259"
       y="1045.1628"
       id="text3112-0"
       sodipodi:linespacing="89.999998%"><tspan
         sodipodi:role="line"
         x="432.8259"
         y="1045.1628"
         style="font-size:22px;font-style:normal;font-variant:normal;font-weight:normal;font-stretch:normal;text-align:center;line-height:89.99999762%;text-anchor:middle;fill:#0e2b58;fill-opacity:1;font-family:Droid Sans;-inkscape-font-specification:Droid Sans"
         id="tspan3179">real-time semantic localization</tspan></text>
  </g>
</svg>
